<?xml version="1.0" encoding="UTF-8" standalone="no"?>
<svg
   xmlns:dc="http://purl.org/dc/elements/1.1/"
   xmlns:cc="http://creativecommons.org/ns#"
   xmlns:rdf="http://www.w3.org/1999/02/22-rdf-syntax-ns#"
   xmlns:svg="http://www.w3.org/2000/svg"
   xmlns="http://www.w3.org/2000/svg"
   xmlns:sodipodi="http://sodipodi.sourceforge.net/DTD/sodipodi-0.dtd"
   xmlns:inkscape="http://www.inkscape.org/namespaces/inkscape"
   width="49.411392mm"
   height="68.446632mm"
   viewBox="0 0 49.411392 68.446632"
   version="1.1"
   id="svg8"
   inkscape:version="1.0.1 (3bc2e813f5, 2020-09-07)"
   sodipodi:docname="pomelo.svg">
  <defs
     id="defs2" />
  <sodipodi:namedview
     id="base"
     pagecolor="#ffffff"
     bordercolor="#666666"
     borderopacity="1.0"
     inkscape:pageopacity="0.0"
     inkscape:pageshadow="2"
     inkscape:zoom="0.35"
     inkscape:cx="765.13402"
     inkscape:cy="472.25539"
     inkscape:document-units="mm"
     inkscape:current-layer="layer1"
     inkscape:document-rotation="0"
     showgrid="false"
     fit-margin-top="0"
     fit-margin-left="0"
     fit-margin-right="0"
     fit-margin-bottom="0"
     inkscape:window-width="2571"
     inkscape:window-height="1256"
     inkscape:window-x="1418"
     inkscape:window-y="282"
     inkscape:window-maximized="0" />
  <metadata
     id="metadata5">
    <rdf:RDF>
      <cc:Work
         rdf:about="">
        <dc:format>image/svg+xml</dc:format>
        <dc:type
           rdf:resource="http://purl.org/dc/dcmitype/StillImage" />
        <dc:title></dc:title>
      </cc:Work>
    </rdf:RDF>
  </metadata>
  <g
     inkscape:label="Layer 1"
     inkscape:groupmode="layer"
     id="layer1"
     transform="translate(-63.588977,-26.037651)">
    <g
       id="g896"
       transform="matrix(0.50772149,0,0,0.50772149,31.303487,-1.0369832)">
      <path
         id="path833"
         style="fill:#ffd42a;stroke-width:0.264999;stroke-linecap:round;stroke-linejoin:round"
         d="m 160.90885,139.37493 c 0,33.30735 -20.94484,49.16711 -48.13622,48.75435 -31.979394,-0.48544 -49.163984,-20.57083 -49.163983,-53.87818 0,-14.23545 12.309552,-27.62961 20.230342,-37.945446 10.611855,-13.820611 10.620023,-28.792952 28.933641,-28.792951 12.33911,10e-7 15.03427,20.632911 24.42959,27.482332 14.95743,10.904335 23.70663,23.922565 23.70663,44.379895 z"
         sodipodi:nodetypes="sssssss" />
      <path
         style="fill:#483737;stroke:none;stroke-width:0.776133px;stroke-linecap:butt;stroke-linejoin:miter;stroke-opacity:1"
         d="m 111.20122,69.496729 c -3.75306,0.567183 -3.26295,-0.992576 -3.7951,0.673528 -0.53215,1.666104 3.1089,2.599585 3.571,2.599585 0.46213,0 4.73338,-0.307218 4.08916,-1.784256 -0.64417,-1.477039 -3.86506,-1.488857 -3.86506,-1.488857 z"
         id="path836" />
      <path
         style="fill:#483737;stroke:none;stroke-width:0.439101px;stroke-linecap:butt;stroke-linejoin:miter;stroke-opacity:1"
         d="m 110.572,70.516075 c 0.62922,-1.019346 -1.35531,-4.317938 -0.0222,-8.519007 0.57012,-1.796702 2.69354,-6.837187 2.98485,-7.498983 0.29132,-0.661795 0.66106,-1.172325 0.66106,-1.172325 l 1.972,0.917057 c 0,0 -3.46133,6.813171 -4.02015,8.204582 -1.25466,3.123934 -0.0745,7.406881 0.11633,7.983584 0.19049,0.576706 -1.69187,0.08509 -1.69187,0.08509 z"
         id="path838"
         sodipodi:nodetypes="sssccsccs" />
      <g
         id="g873"
         transform="matrix(2.8725431,0,0,2.8725431,-210.12493,-126.47654)">
        <path
           style="fill:#008000;stroke:none;stroke-width:0.25;stroke-linecap:butt;stroke-linejoin:miter;stroke-opacity:1"
           d="m 112.04629,65.934338 c 0.18229,-0.06836 3.55123,-2.392609 5.83994,-1.68622 1.61313,0.49788 3.85899,1.957441 5.18735,2.639638 0.55631,0.285698 1.10202,0.13911 1.13191,0.203007 0.10127,0.216474 -2.99086,2.272977 -5.35383,1.902693 -2.36297,-0.370282 -6.10323,-1.754577 -6.51506,-2.187525 -0.41183,-0.432951 -0.29031,-0.871593 -0.29031,-0.871593 z"
           id="path840"
           sodipodi:nodetypes="csssssc" />
        <path
           style="fill:none;stroke:#89a02c;stroke-width:0.15;stroke-linecap:round;stroke-linejoin:miter;stroke-miterlimit:4;stroke-dasharray:none;stroke-opacity:1"
           d="m 112.04629,65.934338 c 0,0 3.91579,-0.08545 4.81372,0.216471 0.89793,0.301924 2.90984,0.957046 3.49721,1.122249 0.58737,0.165203 2.94359,0.148116 3.2339,0.09115 0.29031,-0.05697 0.41183,-0.131027 0.41183,-0.131027"
           id="path842" />
        <path
           style="fill:none;stroke:#89a02c;stroke-width:0.15;stroke-linecap:round;stroke-linejoin:miter;stroke-miterlimit:4;stroke-dasharray:none;stroke-opacity:1"
           d="m 114.17972,65.900156 c 0.17554,-0.159506 0.63463,-0.512699 1.14773,-0.729175 0.51311,-0.216475 1.222,-0.507006 1.30977,-0.683604"
           id="path844" />
        <path
           style="fill:none;stroke:#89a02c;stroke-width:0.15;stroke-linecap:round;stroke-linejoin:miter;stroke-miterlimit:4;stroke-dasharray:none;stroke-opacity:1"
           d="m 115.94183,65.951427 c 0,0 0.78316,-0.159506 1.16123,-0.478523 0.37808,-0.319013 0.85068,-0.808929 0.85068,-0.808929"
           id="path846" />
        <path
           style="fill:none;stroke:#89a02c;stroke-width:0.15;stroke-linecap:round;stroke-linejoin:miter;stroke-miterlimit:4;stroke-dasharray:none;stroke-opacity:1"
           d="m 117.87946,66.481218 c 0.2093,-0.131024 0.71565,-0.256352 1.00596,-0.638029 0.29031,-0.381677 0.66839,-0.615241 0.66839,-0.615241"
           id="path848" />
        <path
           style="fill:none;stroke:#89a02c;stroke-width:0.15;stroke-linecap:round;stroke-linejoin:miter;stroke-miterlimit:4;stroke-dasharray:none;stroke-opacity:1"
           d="m 119.45929,66.948345 c 0.89793,-0.484216 1.2355,-0.791839 1.22875,-0.922864"
           id="path850" />
        <path
           style="fill:none;stroke:#89a02c;stroke-width:0.15;stroke-linecap:round;stroke-linejoin:miter;stroke-miterlimit:4;stroke-dasharray:none;stroke-opacity:1"
           d="m 114.17972,65.900156 c 0.51311,0.922864 0.89119,1.253271 0.9857,1.577983"
           id="path852" />
        <path
           style="fill:none;stroke:#89a02c;stroke-width:0.15;stroke-linecap:round;stroke-linejoin:miter;stroke-miterlimit:4;stroke-dasharray:none;stroke-opacity:1"
           d="m 116.2508,66.000186 c 0.2093,0.273441 0.69023,1.631763 0.61596,1.984958"
           id="path854"
           sodipodi:nodetypes="cc" />
        <path
           style="fill:none;stroke:#89a02c;stroke-width:0.15;stroke-linecap:round;stroke-linejoin:miter;stroke-miterlimit:4;stroke-dasharray:none;stroke-opacity:1"
           d="m 117.87946,66.481218 c 0,0 0.40509,0.307621 0.58737,0.757661 0.18229,0.450038 0.24306,0.820322 0.16204,1.053886"
           id="path856" />
        <path
           style="fill:none;stroke:#89a02c;stroke-width:0.15;stroke-linecap:round;stroke-linejoin:miter;stroke-miterlimit:4;stroke-dasharray:none;stroke-opacity:1"
           d="m 119.45929,66.948343 c 0.4861,0.632335 0.81692,0.60955 0.75615,1.133644"
           id="path858" />
        <path
           style="fill:none;stroke:#89a02c;stroke-width:0.15;stroke-linecap:round;stroke-linejoin:miter;stroke-miterlimit:4;stroke-dasharray:none;stroke-opacity:1"
           d="m 121.80876,66.851503 c -0.12827,0.387373 -0.0945,0.113935 -0.87768,0.472823 0.081,0.575368 0.27006,0.77475 0.14179,0.974135"
           id="path860" />
      </g>
      <path
         style="fill:#c8ab37;stroke:none;stroke-width:0.264583px;stroke-linecap:butt;stroke-linejoin:miter;stroke-opacity:1"
         d="m 80.551654,101.88976 c -0.114565,0.80563 -5.15588,38.5415 -0.343741,49.78813 4.812135,11.24664 17.644501,22.23545 28.452677,26.77924 10.80817,4.54379 25.62643,4.73713 26.27571,4.67268 0.64928,-0.0645 -6.22521,3.60923 -9.54787,3.86703 -3.32265,0.25781 -17.30071,2.48135 -25.741043,-0.22557 -8.44033,-2.70693 -21.539983,-4.67266 -30.629545,-23.78228 -9.089562,-19.10962 -4.277471,-36.44686 -3.13173,-39.05711 1.145741,-2.61024 8.287562,-16.69272 14.665542,-22.04212 z"
         id="path875" />
      <path
         style="fill:#ffe680;stroke:none;stroke-width:0.264583px;stroke-linecap:butt;stroke-linejoin:miter;stroke-opacity:1"
         d="m 136.23777,101.95436 c 0,0 0.66291,5.07191 -1.49404,6.60592 -1.36623,0.97166 -2.58572,1.18544 -3.19705,2.17692 0,0 2.04086,2.6009 3.33573,4.0338 2.32968,2.57802 3.13171,3.89926 3.13171,3.89926 0,0 1.72164,-1.36605 5.02127,-2.95412 1.73256,-0.83386 5.60026,0.32696 5.60026,0.32696 0,0 -1.98974,-5.02911 -5.19714,-8.84346 -2.29524,-2.72957 -5.70329,-4.37157 -7.20074,-5.24528 z"
         id="path877"
         sodipodi:nodetypes="cscscscsc" />
    </g>
  </g>
</svg>
